<?xml version="1.0" encoding="UTF-8"?>
<svg id="Camada_1" xmlns="http://www.w3.org/2000/svg" version="1.1" viewBox="0 0 32 32">
  <!-- Generator: Adobe Illustrator 30.0.0, SVG Export Plug-In . SVG Version: 2.1.1 Build 123)  -->
  <defs>
    <style>
      .st0 {
        fill: #00cb91;
      }

      .st1 {
        fill: #ececec;
      }
    </style>
  </defs>
  <g id="FUNDO_ESCURO">
    <g>
      <path class="st1" d="M30.2.5c.7,0,1.2.5,1.2,1.2v6.4c0,.2,0,.4-.2.5l-7.3,7.3c-.2.2-.4,0-.4-.1,0-1.3,0-5.4-.1-6.8s-.2-.4-.5-.4h-7.2s0,0,0,0h-7.7c-.1,0-.3-.1-.3-.3h0s0,0,0-.1L15.3.6c0,0,.2-.1.3-.1h14.6Z"/>
      <path class="st0" d="M15.8,17.4v6.4s0,0,0,.1l-7.4,7.5c-.2.2-.5,0-.5-.2v-6.5c0-.4-.3-.7-.7-.7H.6c-.2,0-.3-.2-.1-.3l7.4-7.4h0c0,0,.1,0,.2,0h6.5c.7,0,1.2.5,1.2,1.2Z"/>
      <path class="st1" d="M31.6,17.4v6.4s0,0,0,.1l-7.4,7.5c-.2.2-.5,0-.5-.2v-6.5c0-.4-.3-.7-.7-.7h-6.5c-.2,0-.3-.2-.1-.3l7.4-7.4h0c0,0,.1,0,.2,0h6.5c.7,0,1.2.5,1.2,1.2Z"/>
    </g>
  </g>
</svg>