<?xml version="1.0" encoding="UTF-8"?>
<svg id="Camada_1" xmlns="http://www.w3.org/2000/svg" version="1.1" viewBox="0 0 800 800">
  <!-- Generator: Adobe Illustrator 30.0.0, SVG Export Plug-In . SVG Version: 2.1.1 Build 123)  -->
  <defs>
    <style>
      .st0 {
        fill: #4285f4;
      }

      .st1 {
        fill: #fbbc05;
      }

      .st2 {
        fill: #34a853;
      }

      .st3 {
        fill: #eb4335;
      }
    </style>
  </defs>
  <path class="st0" d="M790.5,407.5c0-32.8-2.7-56.7-8.4-81.5h-374.3v147.9h219.7c-4.4,36.8-28.3,92.1-81.5,129.3l-.7,5,118.3,91.7,8.2.8c75.3-69.5,118.7-171.9,118.7-293.2"/>
  <path class="st2" d="M407.8,797.3c107.6,0,198-35.4,264-96.6l-125.8-97.4c-33.7,23.5-78.8,39.9-138.2,39.9-105.4,0-194.9-69.5-226.8-165.6l-4.7.4-123,95.2-1.6,4.5c65.6,130.2,200.2,219.7,356.1,219.7"/>
  <path class="st1" d="M181,477.5c-8.4-24.8-13.3-51.4-13.3-78.8s4.9-54,12.8-78.8l-.2-5.3-124.6-96.8-4.1,1.9c-27,54-42.5,114.7-42.5,178.9s15.5,124.9,42.5,178.9l129.3-100.1"/>
  <path class="st3" d="M407.8,154.1c74.9,0,125.3,32.3,154.1,59.4l112.5-109.8C605.3,39.4,515.4,0,407.8,0,251.9,0,117.2,89.5,51.7,219.7l128.9,100.1c32.3-96.1,121.8-165.7,227.2-165.7"/>
</svg>