<?xml version="1.0" encoding="UTF-8"?>
<svg id="Camada_1" xmlns="http://www.w3.org/2000/svg" version="1.1" viewBox="0 0 1920 1080">
  <!-- Generator: Adobe Illustrator 30.0.0, SVG Export Plug-In . SVG Version: 2.1.1 Build 123)  -->
  <defs>
    <style>
      .st0 {
        fill: #00cb91;
      }

      .st1 {
        fill: #ececec;
      }
    </style>
  </defs>
  <g>
    <path class="st1" d="M868.8,706c0,14.4,8.5,23.1,21,23.1s18.3-4.5,18.3-17.8v-2.9h-20v-5h25.3v30h-4.4l-.5-8.8c-2.9,5.5-9.9,9.7-18.9,9.7-15.7,0-26.5-11.3-26.5-28.4s10.8-28.9,26.7-28.9,20.7,6.7,22.9,16.7h-6c-2.3-7.6-8.8-11.5-16.9-11.5-12.8,0-20.8,9.4-20.8,23.6Z"/>
    <path class="st1" d="M949,700.4h-2.9c-6.9,0-11.3,4.6-11.3,11.8v21.4h-5.3v-37.5h5l.4,5.8c1.5-4,5.4-6.7,10.7-6.7s2.2,0,3.5.4v4.8Z"/>
    <path class="st1" d="M977.1,695c11,0,19,8.3,19,19.7s-8,19.7-19,19.7-19-8.3-19-19.7,8-19.7,19-19.7ZM977.1,729.6c8,0,13.6-6.1,13.6-14.9s-5.6-14.9-13.6-14.9-13.6,6.2-13.6,14.9,5.6,14.9,13.6,14.9Z"/>
    <path class="st1" d="M1004.7,696h5.5l7.4,22.6c.9,2.5,1.5,5,2.3,8,.6-3,1.9-6.8,2.2-8l7.4-22.6h5.5l7.4,22.6c.7,2,1.6,5.3,2.3,8,.8-3.1.9-4,2.2-8l7.4-22.6h5.6l-12.7,37.5h-5.2l-7.7-23.5c-.9-2.8-1.5-5.1-2-7.4-.5,2-1.2,4.3-2.2,7.4l-7.7,23.5h-5.3l-12.4-37.5Z"/>
    <path class="st1" d="M1076,733.5v-33h-7.5v-4.5h7.5v-11.8h5.3v11.8h7.5v4.5h-7.5v33h-5.3Z"/>
    <path class="st1" d="M1101.9,733.4v-56.3h5.3v25.5c2.4-4.5,7-7.5,13.2-7.5,9.8,0,14.2,6.1,14.2,15.6v22.9h-5.3v-21.7c0-8.7-4.1-11.8-9.9-11.8s-12.2,6-12.2,13.2v20.4h-5.3Z"/>
    <path class="st1" d="M1176.4,714.7c0-11.7,7.3-19.7,18-19.7s17,7.2,17,17.8v2.6h-29.8c.4,9.1,5.2,14.4,13.2,14.4s10.1-2.6,11.5-7.6h5.1c-2,7.9-7.8,12.1-16.6,12.1s-18.3-7.9-18.3-19.7ZM1181.7,711.6h24.3c0-7.2-4.6-12-11.7-12s-11.7,4.6-12.6,12Z"/>
    <path class="st1" d="M1260.3,713.1v20.4h-5.6v-55.4h21.1c10.7,0,17.4,7,17.4,17.4s-6.8,17.6-17.4,17.6h-15.6ZM1260.3,683.1v25h14.5c8,0,12.7-5.1,12.7-12.7s-4.7-12.3-12.4-12.3h-14.8Z"/>
    <path class="st1" d="M1302.9,714.7c0-11.7,7.3-19.7,18-19.7s17,7.2,17,17.8v2.6h-29.8c.4,9.1,5.2,14.4,13.2,14.4s10.1-2.6,11.5-7.6h5.1c-2,7.9-7.8,12.1-16.6,12.1s-18.3-7.9-18.3-19.7ZM1308.2,711.6h24.3c0-7.2-4.6-12-11.7-12s-11.7,4.6-12.6,12Z"/>
    <path class="st1" d="M1372.1,700.4h-2.9c-6.9,0-11.3,4.6-11.3,11.8v21.4h-5.3v-37.5h5l.4,5.8c1.5-4,5.4-6.7,10.7-6.7s2.2,0,3.5.4v4.8Z"/>
    <path class="st1" d="M1388.4,696v-7.3c0-8.4,4.6-11.7,10.4-11.7s2.9,0,4.1.3v4.6h-3.2c-4.7,0-6,2.4-6,6.8v7.3h8.8v4.5h-8.8v33h-5.3v-33h-5.7v-4.5h5.7Z"/>
    <path class="st1" d="M1431.2,695c11,0,19,8.3,19,19.7s-8,19.7-19,19.7-19-8.3-19-19.7,8-19.7,19-19.7ZM1431.2,729.6c8,0,13.6-6.1,13.6-14.9s-5.6-14.9-13.6-14.9-13.6,6.2-13.6,14.9,5.6,14.9,13.6,14.9Z"/>
    <path class="st1" d="M1484.4,700.4h-2.9c-6.9,0-11.3,4.6-11.3,11.8v21.4h-5.3v-37.5h5l.4,5.8c1.5-4,5.4-6.7,10.7-6.7s2.2,0,3.5.4v4.8Z"/>
    <path class="st1" d="M1497.7,733.5v-37.5h4.6l.6,5.3c1.9-3.9,6-6.3,11.3-6.3s10.3,3.1,12.1,8c1.7-4.9,6.3-8,12.3-8s13.5,5.3,13.5,13.9v24.5h-5.2v-23.4c0-6.4-3.6-10.2-9.3-10.2s-10,4.7-10,10.5v23.1h-5.3v-23.5c0-6.3-3.6-10.1-9.3-10.1s-10.1,4.6-10.1,10.4v23.2h-5.3Z"/>
    <path class="st1" d="M1567,723.3c0-6.9,5.3-11.2,14-11.9l12.4-1v-1.2c0-7.4-4.4-9.7-9.9-9.7s-10.4,2.9-10.4,8h-4.9c0-7.6,6.2-12.5,15.4-12.5s15,4.3,15,14.2v24.2h-4.5l-.7-6.6c-2.3,4.7-7.4,7.5-13.8,7.5s-12.7-4.5-12.7-11.1ZM1593.4,716.5v-2l-11.1.9c-7,.6-9.9,3.7-9.9,7.9s3.4,6.9,8.5,6.9c7.9,0,12.5-5.5,12.5-13.6Z"/>
    <path class="st1" d="M1615.4,733.5v-37.5h4.6l.8,6.5c2.5-4.8,7.4-7.5,12.8-7.5,10.3,0,14.5,6.1,14.5,15.6v22.9h-5.3v-21.7c0-8.7-3.9-11.8-10.1-11.8s-12,5.6-12,14v19.6h-5.3Z"/>
    <path class="st1" d="M1680.5,695c8.7,0,15,5,16.5,12.8h-5.3c-1.4-5.2-5.9-8-11.1-8-7.6,0-12.9,5.8-12.9,15s5,14.9,12.5,14.9,10.1-3.1,11.5-7.9h5.4c-1.8,7.7-8.4,12.7-16.9,12.7s-17.8-7.8-17.8-19.6,7.2-19.8,18.1-19.8Z"/>
    <path class="st1" d="M1708.8,714.7c0-11.7,7.3-19.7,18-19.7s17,7.2,17,17.8v2.6h-29.8c.4,9.1,5.2,14.4,13.2,14.4s10.1-2.6,11.5-7.6h5.1c-2,7.9-7.8,12.1-16.6,12.1s-18.3-7.9-18.3-19.7ZM1714.1,711.6h24.3c0-7.2-4.6-12-11.7-12s-11.7,4.6-12.6,12Z"/>
  </g>
  <g>
    <g>
      <path class="st1" d="M739.3,247.2c12.4,0,22.4,10,22.4,22.4v121c0,3.4-1.4,6.7-3.8,9.1l-137.1,137.1c-3.3,3.3-8,1.5-8-2.3,0-24.7-1.7-102.3-2.2-128.2,0-4.7-3.9-8.4-8.6-8.4h-135.3s-.4,0-.8,0h-145.2c-2.7,0-4.9-2.2-4.9-4.9h0c0-.8.3-1.6.9-2.2l141.2-141.2c1.6-1.6,3.7-2.4,5.9-2.4h275.5Z"/>
      <path class="st0" d="M466.9,566.8v121.4c0,.8-.3,1.6-.9,2.1l-140.2,140.7c-3.6,3.6-9.6,1.1-9.6-4v-122.4c0-7.5-6.1-13.6-13.6-13.6h-122.6c-3.3,0-4.9-4-2.6-6.3l138.9-139.4h0c1.1-1.1,2.7-1.8,4.2-1.8h123.3c12.8,0,23.2,10.4,23.2,23.2Z"/>
      <path class="st1" d="M765,566.8v121.4c0,.8-.3,1.6-.9,2.1l-140.2,140.7c-3.6,3.6-9.6,1.1-9.6-4v-122.4c0-7.5-6.1-13.6-13.6-13.6h-122.6c-3.3,0-4.9-4-2.6-6.3l138.9-139.4h0c1.1-1.1,2.7-1.8,4.2-1.8h123.3c12.8,0,23.2,10.4,23.2,23.2Z"/>
    </g>
    <g>
      <path class="st1" d="M926,628.4h-63.4v-283.2h156.4c23.4,0,43.3,3.3,59.6,9.9,16.3,6.6,28.7,16.3,37.2,29,8.5,12.7,12.7,28,12.7,46.1s-3,28.7-8.9,39.7c-5.9,11-14.8,19.8-26.6,26.4-11.8,6.6-26.6,10.8-44.4,12.5v3.4c12.7,3.4,22.1,8.5,28.3,15.2,6.2,6.8,12,15.1,17.3,24.9l41,76.1h-73.6l-38.9-73.6c-4-7.3-8-13.1-12.3-17.3-4.2-4.2-9.7-7.3-16.3-9.1-6.6-1.8-15.4-2.7-26.4-2.7h-41.9v102.7ZM926,402.3v75.7h92.6c14.9,0,25.9-2.6,33-7.8,7-5.2,10.6-15.3,10.6-30.2s-3.5-23.9-10.6-29.4c-7-5.5-18-8.2-33-8.2h-92.6Z"/>
      <path class="st1" d="M1387.9,525.7h.1v-4.6c0,1.6,0,3.1-.1,4.6ZM1387.9,525.7h.1v-4.6c0,1.6,0,3.1-.1,4.6Z"/>
      <path class="st1" d="M1451.5,478.8v149.6h-58.8v-60.9h-3.4c-3.4,12.4-9,23.5-16.9,33.4-7.9,9.9-18.7,17.6-32.3,23.3-13.7,5.6-30.8,8.5-51.4,8.5s-53.6-6-74.6-18c-21-12-37.1-28.9-48.4-50.7-11.3-21.8-16.9-47.6-16.9-77.2s6.4-55.3,19-77.1c12.7-21.8,30.8-38.8,54.3-50.7,23.5-12,51.5-18,83.9-18s55.2,4.4,76.9,13.3c21.7,8.9,38.5,21.4,50.3,37.6,11.8,16.2,17.8,35.7,17.8,58.5v3.4h-70.6v-3.4c0-16.6-5.9-28.9-17.8-36.8-11.8-7.9-31.3-11.8-58.3-11.8s-38.5,2.8-51.4,8.2c-12.8,5.5-22.2,14.4-28.1,26.6-5.9,12.3-8.9,29-8.9,50.1s2.8,37.5,8.5,49.9c5.6,12.4,14.7,21.4,27.3,26.8,12.5,5.5,29.1,8.2,49.7,8.2s40.1-1.5,52.8-4.4c12.7-3,21.5-8.1,26.4-15.4,4.3-6.4,6.8-15.2,7.3-26.2h.1v-4.6c0,1.6,0,3.1-.1,4.6h-95.9v-46.9h159.4Z"/>
      <path class="st1" d="M1743.2,628.4h-265.5v-57.1l166.6-164.4v-4.7h-162.8v-57.1h258.3v57.1l-172.1,164.4v4.7h175.4v57.1Z"/>
    </g>
  </g>
</svg>